<svg xmlns="http://www.w3.org/2000/svg" xmlns:xlink="http://www.w3.org/1999/xlink" version="1.1" width="1080" height="1080" viewBox="0 0 1080 1080" xml:space="preserve">
<desc>Created with Fabric.js 5.2.4</desc>
<defs>
</defs>
<g transform="matrix(1 0 0 1 540 540)" id="562edf43-8587-49c1-bce8-a1bd2c92686b"  >
<rect style="stroke: none; stroke-width: 1; stroke-dasharray: none; stroke-linecap: butt; stroke-dashoffset: 0; stroke-linejoin: miter; stroke-miterlimit: 4; fill: rgb(255,255,255); fill-rule: nonzero; opacity: 1; visibility: hidden;" vector-effect="non-scaling-stroke"  x="-540" y="-540" rx="0" ry="0" width="1080" height="1080" />
</g>
<g transform="matrix(1 0 0 1 540 540)" id="5d8224f4-8063-4302-8cb8-aac899a5841e"  >
</g>
<g transform="matrix(1 0 0 1 540 540)"  >
<g style="" vector-effect="non-scaling-stroke"   >
		<g transform="matrix(33.33 0 0 33.33 83.33 -66.66)"  >
<path style="stroke: none; stroke-width: 1; stroke-dasharray: none; stroke-linecap: butt; stroke-dashoffset: 0; stroke-linejoin: miter; stroke-miterlimit: 4; fill: rgb(255,255,255); fill-rule: evenodd; opacity: 1;" vector-effect="non-scaling-stroke"  transform=" translate(-14.29, -10)" d="M 20.8293 10.7154 L 20.3116 12.6473 C 19.7074 14.9024 19.4052 16.0299 18.7203 16.7612 C 18.1795 17.3386 17.4796 17.7427 16.7092 17.9223 C 16.6129 17.9448 16.5152 17.9621 16.415 17.9744 C 15.4999 18.0873 14.3834 17.7881 12.3508 17.2435 C 10.0957 16.6392 8.96815 16.3371 8.23687 15.6522 C 7.65945 15.1114 7.25537 14.4115 7.07573 13.641 C 6.84821 12.6652 7.15033 11.5377 7.75458 9.28263 L 8.27222 7.35077 C 8.3591 7.02654 8.43979 6.7254 8.51621 6.44561 C 8.97128 4.77957 9.27709 3.86298 9.86351 3.23687 C 10.4043 2.65945 11.1042 2.25537 11.8747 2.07573 C 12.8504 1.84821 13.978 2.15033 16.2331 2.75458 C 18.4881 3.35883 19.6157 3.66095 20.347 4.34587 C 20.9244 4.88668 21.3285 5.58657 21.5081 6.35703 C 21.7356 7.3328 21.4335 8.46034 20.8293 10.7154 Z M 11.0524 9.80589 C 11.1596 9.40579 11.5709 9.16835 11.971 9.27556 L 16.8006 10.5697 C 17.2007 10.6769 17.4381 11.0881 17.3309 11.4882 C 17.2237 11.8883 16.8125 12.1257 16.4124 12.0185 L 11.5827 10.7244 C 11.1826 10.6172 10.9452 10.206 11.0524 9.80589 Z M 10.2756 12.7033 C 10.3828 12.3032 10.794 12.0658 11.1941 12.173 L 14.0919 12.9495 C 14.492 13.0567 14.7294 13.4679 14.6222 13.868 C 14.515 14.2681 14.1038 14.5056 13.7037 14.3984 L 10.8059 13.6219 C 10.4058 13.5147 10.1683 13.1034 10.2756 12.7033 Z" stroke-linecap="round" />
</g>
		<g transform="matrix(33.33 0 0 33.33 -86.15 74.09)"  >
<path style="stroke: none; stroke-width: 1; stroke-dasharray: none; stroke-linecap: butt; stroke-dashoffset: 0; stroke-linejoin: miter; stroke-miterlimit: 4; fill: rgb(255,255,255); fill-rule: nonzero; opacity: 0.5;" vector-effect="non-scaling-stroke"  transform=" translate(-9.21, -14.22)" d="M 16.4149 17.9745 C 16.2064 18.6128 15.8398 19.1903 15.347 19.6519 C 14.6157 20.3368 13.4881 20.6389 11.2331 21.2432 C 8.97798 21.8474 7.85044 22.1496 6.87466 21.922 C 6.10421 21.7424 5.40432 21.3383 4.86351 20.7609 C 4.17859 20.0296 3.87647 18.9021 3.27222 16.647 L 2.75458 14.7152 C 2.15033 12.4601 1.84821 11.3325 2.07573 10.3568 C 2.25537 9.5863 2.65945 8.88641 3.23687 8.3456 C 3.96815 7.66068 5.09569 7.35856 7.35077 6.75431 C 7.7774 6.64 8.16369 6.53649 8.51621 6.44534 C 8.51618 6.44545 8.51624 6.44524 8.51621 6.44534 C 8.43979 6.72513 8.3591 7.02657 8.27222 7.35081 L 7.75458 9.28266 C 7.15033 11.5377 6.84821 12.6653 7.07573 13.6411 C 7.25537 14.4115 7.65945 15.1114 8.23687 15.6522 C 8.96815 16.3371 10.0957 16.6393 12.3508 17.2435 C 14.3833 17.7881 15.4999 18.0873 16.4149 17.9745 Z" stroke-linecap="round" />
</g>
</g>
</g>
</svg>